#!OML:ASF X:\für Bonn\!DataBase\2005_08_10_Bjorn_Final\c3d\bjorn.ASF
:FULLY-SPECIFIED
:DEGREES
286
root 15.719 19.1289 2.23781 1091.72 -76.3618 -363.474
lowerback 27.788 4.43235 2.80878
upperback 21.9211 3.83908 -1.13067
thorax 9.5592 1.55102 -3.51371
lowerneck -1.42088 -5.46641 10.7289
upperneck -8.72621 -7.24098 2.09373
head -2.9157 -4.08604 -0.978027
rclavicle -2.78299e-015 1.98785e-015
rhumerus -0.732184 18.7352 -62.7364
rradius 30.8905
rwrist -19.2522
rhand 7.11335 0.648662
rfingers 7.12502
rthumb 32.3836 -26.4796
lclavicle -2.78299e-015 1.98785e-015
lhumerus -10.0036 -9.34892 83.2247
lradius 41.1646
lwrist -14.8783
lhand -26.1898 -12.674
lfingers 7.12502
lthumb 0.362397 17.3055
rfemur -22.7385 -3.45803 12.3142
rtibia 33.1177
rfoot -14.3643 7.70771
rtoes -9.34337
lfemur -22.8845 -0.222348 -19.201
ltibia 36.5518
lfoot -15.6772 -0.636237
ltoes -5.828
287
root 15.6655 19.1274 2.26811 1091.68 -76.449 -364.123
lowerback 27.0435 4.3774 2.58545
upperback 21.7211 3.7863 -1.18503
thorax 9.62439 1.51257 -3.42145
lowerneck -1.67108 -5.3952 10.6213
upperneck -7.96203 -7.19041 2.16685
head -2.59712 -4.01732 -0.959538
rclavicle -1.35174e-014 3.18055e-015
rhumerus -2.37194 18.9052 -63.5803
rradius 31.7911
rwrist -19.8946
rhand 7.59015 0.435265
rfingers 7.12502
rthumb 32.8372 -26.5991
lclavicle -1.35174e-014 3.18055e-015
lhumerus -10.4221 -8.57605 83.0133
lradius 41.2739
lwrist -15.823
lhand -26.6282 -12.5236
lfingers 7.12502
lthumb -0.0609829 17.4561
rfemur -21.6531 -3.23202 12.3763
rtibia 32.84
rfoot -14.479 7.67144
rtoes -9.17816
lfemur -21.7637 0.0640503 -19.1111
ltibia 36.2816
lfoot -15.8658 -0.827479
ltoes -5.90662
288
root 15.6114 19.1255 2.29736 1091.68 -76.5423 -364.802
lowerback 26.3277 4.31345 2.40209
upperback 21.5181 3.73127 -1.26967
thorax 9.68517 1.48074 -3.38322
lowerneck -1.87297 -5.3441 10.5531
upperneck -7.21885 -7.16053 2.2528
head -2.30122 -3.96178 -0.940538
rclavicle 6.75868e-015 -3.50855e-014
rhumerus -3.99063 18.9748 -64.4813
rradius 32.6545
rwrist -20.5546
rhand 7.9796 0.300328
rfingers 7.12502
rthumb 33.2076 -26.6558
lclavicle 6.75868e-015 -3.50855e-014
lhumerus -10.8082 -7.91686 82.7277
lradius 41.4014
lwrist -16.6685
lhand -27.0423 -12.2044
lfingers 7.12502
lthumb -0.460945 17.7749
rfemur -20.5702 -2.99192 12.4466
rtibia 32.5723
rfoot -14.6136 7.64936
rtoes -8.96937
lfemur -20.6389 0.335959 -18.9998
ltibia 35.991
lfoot -16.0292 -1.03446
ltoes -5.73006
289
root 15.5572 19.1241 2.32518 1091.68 -76.5999 -365.434
lowerback 25.5834 4.23023 2.24713
upperback 20.9882 3.64393 -1.29391
thorax 10.1203 1.45448 -3.4232
lowerneck -2.05726 -5.29239 10.4229
upperneck -6.50349 -7.12431 2.43947
head -2.01374 -3.90529 -0.877637
rclavicle 2.10712e-014 -4.36332e-014
rhumerus -5.5729 18.8854 -65.3714
rradius 33.5653
rwrist -21.1358
rhand 8.30215 0.0621706
rfingers 7.12502
rthumb 33.5143 -26.8281
lclavicle 2.10712e-014 -4.36332e-014
lhumerus -11.0945 -7.32721 82.4253
lradius 41.4985
lwrist -17.4572
lhand -27.4745 -11.7208
lfingers 7.12502
lthumb -0.878326 18.2572
rfemur -19.5485 -2.80411 12.5298
rtibia 32.3091
rfoot -14.7368 7.60782
rtoes -8.82466
lfemur -19.5755 0.60192 -18.8846
ltibia 35.6953
lfoot -16.1785 -1.23772
ltoes -5.80814
